# xmcd
#
# Track frame offsets:
#	187
#	23272
#	39997
#	60157
#	79677
#	100482
#	123885
#	144125
#	166382
#	189205
#
# Disc length: 2826 seconds
#
# Revision: 1
# Processed by: cddbd v1.5.2PL0 Copyright (c) Steve Scherf et al.
# Submitted via: audiograbber 1.83.01
#
DISCID=660b080a
DTITLE=Various Artist - Tinh lo tram nam
DYEAR=1900
DGENRE=Pop
TTITLE0=Ngoc Lan - Tinh lo tram nam
TTITLE1=Kieu Nga - Vinh biet tinh anh
TTITLE2=Tuyet Nhung - Chuyen buon tinh yeu
TTITLE3=Ngoc Lan - Tiec thuong
TTITLE4=Tuyet Nhung - Tra lai anh
TTITLE5=Ngoc Lan - Em da di roi
TTITLE6=Kieu Nga - To sau
TTITLE7=Tuyet Nhung - Mua qua thanh pho
TTITLE8=Kieu Nga - Ao anh
TTITLE9=Tuyet Nhung - Van mai yeu anh
EXTD=
EXTT0=
EXTT1=
EXTT2=
EXTT3=
EXTT4=
EXTT5=
EXTT6=
EXTT7=
EXTT8=
EXTT9=
PLAYORDER=
